<mxfile host="app.diagrams.net" modified="2023-06-22T21:03:32.645Z" agent="Mozilla/5.0 (X11; Linux x86_64) AppleWebKit/537.36 (KHTML, like Gecko) Chrome/113.0.0.0 Safari/537.36" etag="64AxIt2rreZQwspOgPYP" version="21.4.0" type="device">
  <diagram name="Страница 1" id="WNlM1-ay-EhfYl1IvtXi">
    <mxGraphModel dx="1434" dy="741" grid="1" gridSize="10" guides="1" tooltips="1" connect="1" arrows="1" fold="1" page="1" pageScale="1" pageWidth="1100" pageHeight="850" math="0" shadow="0">
      <root>
        <mxCell id="0" />
        <mxCell id="1" parent="0" />
        <mxCell id="KN0GZETk6gdFgCcJc2OW-10" style="edgeStyle=orthogonalEdgeStyle;rounded=0;orthogonalLoop=1;jettySize=auto;html=1;entryX=0.25;entryY=0;entryDx=0;entryDy=0;" edge="1" parent="1" source="KN0GZETk6gdFgCcJc2OW-1" target="KN0GZETk6gdFgCcJc2OW-4">
          <mxGeometry relative="1" as="geometry" />
        </mxCell>
        <mxCell id="KN0GZETk6gdFgCcJc2OW-1" value="Гиперпараметры" style="rounded=1;whiteSpace=wrap;html=1;fillColor=#ffe6cc;strokeColor=#d79b00;" vertex="1" parent="1">
          <mxGeometry x="220" y="295" width="120" height="60" as="geometry" />
        </mxCell>
        <mxCell id="KN0GZETk6gdFgCcJc2OW-11" style="edgeStyle=orthogonalEdgeStyle;rounded=0;orthogonalLoop=1;jettySize=auto;html=1;entryX=0;entryY=0.5;entryDx=0;entryDy=0;" edge="1" parent="1" source="KN0GZETk6gdFgCcJc2OW-2" target="KN0GZETk6gdFgCcJc2OW-4">
          <mxGeometry relative="1" as="geometry" />
        </mxCell>
        <mxCell id="KN0GZETk6gdFgCcJc2OW-2" value="&lt;i&gt;X&lt;/i&gt;&lt;br&gt;Набор данных" style="rounded=1;whiteSpace=wrap;html=1;fillColor=#fff2cc;strokeColor=#d6b656;" vertex="1" parent="1">
          <mxGeometry x="220" y="395" width="120" height="60" as="geometry" />
        </mxCell>
        <mxCell id="KN0GZETk6gdFgCcJc2OW-13" style="edgeStyle=orthogonalEdgeStyle;rounded=0;orthogonalLoop=1;jettySize=auto;html=1;exitX=1;exitY=0.5;exitDx=0;exitDy=0;" edge="1" parent="1" source="KN0GZETk6gdFgCcJc2OW-3" target="KN0GZETk6gdFgCcJc2OW-7">
          <mxGeometry relative="1" as="geometry" />
        </mxCell>
        <mxCell id="KN0GZETk6gdFgCcJc2OW-3" value="&lt;i&gt;x&lt;/i&gt;&lt;br&gt;Объект" style="rounded=1;whiteSpace=wrap;html=1;fillColor=#fff2cc;strokeColor=#d6b656;" vertex="1" parent="1">
          <mxGeometry x="220" y="495" width="120" height="60" as="geometry" />
        </mxCell>
        <mxCell id="KN0GZETk6gdFgCcJc2OW-12" style="edgeStyle=orthogonalEdgeStyle;rounded=0;orthogonalLoop=1;jettySize=auto;html=1;" edge="1" parent="1" source="KN0GZETk6gdFgCcJc2OW-4" target="KN0GZETk6gdFgCcJc2OW-5">
          <mxGeometry relative="1" as="geometry" />
        </mxCell>
        <mxCell id="KN0GZETk6gdFgCcJc2OW-4" value="Алгоритм&lt;br&gt;обучения&lt;br&gt;модели &lt;i&gt;a&lt;/i&gt;" style="shape=step;perimeter=stepPerimeter;whiteSpace=wrap;html=1;fixedSize=1;fillColor=#dae8fc;strokeColor=#6c8ebf;" vertex="1" parent="1">
          <mxGeometry x="400" y="395" width="120" height="60" as="geometry" />
        </mxCell>
        <mxCell id="KN0GZETk6gdFgCcJc2OW-14" style="edgeStyle=orthogonalEdgeStyle;rounded=0;orthogonalLoop=1;jettySize=auto;html=1;exitX=0.5;exitY=1;exitDx=0;exitDy=0;entryX=0.5;entryY=0;entryDx=0;entryDy=0;" edge="1" parent="1" source="KN0GZETk6gdFgCcJc2OW-5" target="KN0GZETk6gdFgCcJc2OW-7">
          <mxGeometry relative="1" as="geometry" />
        </mxCell>
        <mxCell id="KN0GZETk6gdFgCcJc2OW-5" value="&lt;i&gt;θ&lt;/i&gt;&lt;br&gt;Параметры" style="rounded=1;whiteSpace=wrap;html=1;fillColor=#e1d5e7;strokeColor=#9673a6;" vertex="1" parent="1">
          <mxGeometry x="580" y="395" width="120" height="60" as="geometry" />
        </mxCell>
        <mxCell id="KN0GZETk6gdFgCcJc2OW-15" style="edgeStyle=orthogonalEdgeStyle;rounded=0;orthogonalLoop=1;jettySize=auto;html=1;exitX=1;exitY=0.5;exitDx=0;exitDy=0;entryX=0;entryY=0.5;entryDx=0;entryDy=0;" edge="1" parent="1" source="KN0GZETk6gdFgCcJc2OW-7" target="KN0GZETk6gdFgCcJc2OW-9">
          <mxGeometry relative="1" as="geometry" />
        </mxCell>
        <mxCell id="KN0GZETk6gdFgCcJc2OW-7" value="&lt;i&gt;a&lt;sub&gt;θ&lt;/sub&gt;&lt;/i&gt;&lt;br&gt;Алгоритм&lt;br&gt;Предсказания" style="shape=step;perimeter=stepPerimeter;whiteSpace=wrap;html=1;fixedSize=1;fillColor=#f8cecc;strokeColor=#b85450;" vertex="1" parent="1">
          <mxGeometry x="580" y="495" width="120" height="60" as="geometry" />
        </mxCell>
        <mxCell id="KN0GZETk6gdFgCcJc2OW-9" value="&lt;i&gt;y&lt;/i&gt;&lt;br&gt;Предсказание" style="rounded=1;whiteSpace=wrap;html=1;fillColor=#d5e8d4;strokeColor=#82b366;" vertex="1" parent="1">
          <mxGeometry x="760" y="495" width="120" height="60" as="geometry" />
        </mxCell>
      </root>
    </mxGraphModel>
  </diagram>
</mxfile>
